<?xml version="1.0" encoding="utf-8"?>
<!-- Generator: Adobe Illustrator 19.1.0, SVG Export Plug-In . SVG Version: 6.00 Build 0)  -->
<svg version="1.1" id="Layer_1" xmlns="http://www.w3.org/2000/svg" xmlns:xlink="http://www.w3.org/1999/xlink" x="0px" y="0px"
	 viewBox="-75.5 11 167 54" enable-background="new -75.5 11 167 54" xml:space="preserve">
<g>
	<g>
		
			<rect x="44.6" y="10.9" transform="matrix(-0.7073 -0.7069 0.7069 -0.7073 66.8832 60.7314)" fill="#1C1C1C" width="2.8" height="11.2"/>
		
			<rect x="44.6" y="20.8" transform="matrix(0.7071 -0.7071 0.7071 0.7071 -5.1962 40.2723)" fill="#1C1C1C" width="2.8" height="11.2"/>
	</g>
	<polygon fill="#009DE0" points="41.1,19.5 33.2,11.6 31.2,13.6 39.1,21.5 31.2,29.4 33.2,31.4 41.1,23.4 43.1,21.5 	"/>
	<g>
		<g>
			<path fill="#1C1C1C" d="M25,64.4c-3.4,0-6.5-1.5-8.5-3.5l1.9-2.1c1.9,1.8,4.1,3,6.7,3c3.3,0,5.4-1.7,5.4-4.3c0-2.3-1.4-3.7-6-5.3
				c-5.4-1.9-7.3-3.7-7.3-7.3c0-4,3.2-6.4,7.9-6.4c3.4,0,5.5,1,7.7,2.7L31,43.3c-1.8-1.5-3.5-2.3-6-2.3c-3.5,0-4.9,1.7-4.9,3.7
				c0,2.1,0.9,3.3,6,5.1c5.6,2,7.3,3.9,7.3,7.6C33.3,61.4,30.2,64.4,25,64.4z"/>
			<path fill="#1C1C1C" d="M39.3,64V38.8h2.8V64H39.3z"/>
			<path fill="#1C1C1C" d="M58,64.4c-6.2,0-10.2-5.6-10.2-13c0-7.5,4.2-13,10.3-13c3.5,0,6,1.3,8,4l-2.2,1.7
				C62.3,42,60.8,41,58.1,41c-4.3,0-7.4,4.3-7.4,10.4c0,6.2,3.2,10.5,7.4,10.5c4.2,0,6.5-2.6,6.5-7.5v-0.2h-4.5v-2.6h7.3V54
				C67.4,60.9,63.4,64.4,58,64.4z"/>
			<path fill="#1C1C1C" d="M88.2,64l-11-17.2c-0.5-0.9-1.5-2.5-1.8-3.2v1.7V64h-2.7V38.8h2.7l10.9,17.6c0.5,0.9,1.5,2.5,1.8,3.2
				v-1.7v-19h2.7V64H88.2z"/>
		</g>
		<g>
			<path fill="#1C1C1C" d="M-74.8,64V38.8h15.2v2.6H-72v7.9h7.2v2.6H-72v9.6h13V64C-59,64-74.8,64-74.8,64z"/>
			<path fill="#1C1C1C" d="M-21.7,64.4c-6.2,0-10.2-5.6-10.2-13c0-7.5,4.2-13,10.3-13c3.5,0,6,1.3,8,4l-2.2,1.7
				c-1.6-2.2-3.1-3.2-5.9-3.2c-4.3,0-7.4,4.3-7.4,10.4c0,6.2,3.2,10.5,7.4,10.5c4.2,0,6.5-2.6,6.5-7.5v-0.2h-4.5v-2.6h7.3V54
				C-12.4,60.9-16.4,64.4-21.7,64.4z"/>
			<path fill="#1C1C1C" d="M2.2,64.4c-6.3,0-10.4-5.4-10.4-13c0-7.6,4.2-13,10.5-13c6.3,0,10.4,5.4,10.4,13
				C12.8,59,8.5,64.4,2.2,64.4z M2.2,41c-4.4,0-7.6,4.1-7.6,10.4c0,6.3,3.3,10.5,7.7,10.5c4.4,0,7.6-4.1,7.6-10.4
				C9.9,45.1,6.6,41,2.2,41z"/>
			<g>
				<path fill="#1C1C1C" d="M-50.9,64h-2.8V38.8h10c4.4,0,7.8,2.3,7.8,7.1c0,3.9-2.3,6.4-5.9,7.1l5.5,10.9h-3.2l-1.9-3.7l-4.8-9.5h2
					c3.7,0,5.5-1.5,5.5-4.7c0-3.1-1.8-4.7-5.1-4.7h-7.1C-50.9,41.4-50.9,64-50.9,64z"/>
			</g>
		</g>
	</g>
</g>
</svg>
